<svg version="1.1" xmlns="http://www.w3.org/2000/svg" viewBox="0 0 1900.4563526547058 567.4444634502038" width="5701.369057964117" height="1702.3333903506114">
  <!-- svg-source:excalidraw -->
  
  <defs>
    <style>
      @font-face {
        font-family: "Virgil";
        src: url("https://excalidraw.com/Virgil.woff2");
      }
      @font-face {
        font-family: "Cascadia";
        src: url("https://excalidraw.com/Cascadia.woff2");
      }
    </style>
  </defs>
  <rect x="0" y="0" width="1900.4563526547058" height="567.4444634502038" fill="#ffffff"></rect><g stroke-linecap="round" transform="translate(10 47.2265625) rotate(0 413.630859375 254.521484375)"><path d="M0.14 -0.44 C275.97 -1.49, 553.82 -1.61, 826.93 0.68 M-0.36 -0.22 C199.18 -1.67, 398.19 -1.59, 827.08 0.14 M826.72 0.29 C827.43 141.84, 827.41 282.95, 826.5 509.76 M827.03 0.39 C828.12 199.44, 828.47 399, 827.13 508.74 M827.68 508.6 C551.33 507.75, 274.18 508.19, -0.47 509.05 M827.65 509.4 C606.01 510.75, 383.97 510.58, -0.34 508.78 M-0.05 509.56 C-1.46 350.33, -0.84 192.19, -0.45 0.62 M-0.3 508.94 C0.96 356.05, 0.95 203.89, -0.03 0.06" stroke="#000000" stroke-width="1" fill="none"></path></g><g transform="translate(15.65625 10) rotate(0 45.5 12.5)"><text x="0" y="18" font-family="Virgil, Segoe UI Emoji" font-size="20px" fill="#000000" text-anchor="start" style="white-space: pre;" direction="ltr">Homepage</text></g><g transform="translate(109.9609375 158.921875) rotate(0 33 10)"><text x="0" y="14" font-family="Virgil, Segoe UI Emoji" font-size="16px" fill="#000000" text-anchor="start" style="white-space: pre;" direction="ltr">My Links</text></g><g stroke-linecap="round" transform="translate(112.26171875 200.078125) rotate(0 299.533203125 130.94140625)"><path d="M0.59 -0.74 C169.49 -0.9, 339.55 -0.6, 598.85 0.16 M0.23 -0.2 C238.45 -0.53, 476.96 -0.61, 599.14 -0.31 M597.61 0.61 C599.79 56.99, 600.19 115.04, 597.83 260.59 M598.83 0.09 C598.74 83.42, 598.88 167.19, 599.07 261.89 M598.81 261.2 C362.67 260.76, 128.24 261.35, 0.53 261.44 M598.79 262.1 C441.01 260.12, 282.96 259.84, 0.36 261.59 M-1.38 262.77 C0 200.97, 2.06 141.13, 1.23 -1.14 M-0.26 262.47 C-0.97 180.37, 0.21 98.52, -0.03 -0.44" stroke="#000000" stroke-width="1" fill="none"></path></g><g stroke-linecap="round" transform="translate(111.9921875 199) rotate(0 299.53515625 19.384765625)"><path d="M-1.09 -1.1 L599.73 -0.99 L598.21 39.3 L0.91 37.99" stroke="none" stroke-width="0" fill="#868e96"></path><path d="M-0.79 0.45 C173.4 0.38, 347.56 0.01, 599.12 -0.27 M-0.24 -0.03 C144.27 -1.05, 288.55 -0.87, 599.27 -0.14 M600.14 -0.1 C597.22 13.74, 600.83 26.71, 599.82 39.66 M598.97 -0.88 C598.29 13.35, 599.16 29.16, 599.81 38.62 M598.66 39.24 C391.08 39.52, 182.16 39.06, 0.14 38.32 M599.17 39.16 C389.3 40.52, 179.17 40.51, -0.16 38.67 M-1.8 39.91 C-1.08 29.15, 1.51 20.5, -0.44 1.72 M0.68 38.89 C0.18 26.68, -1.13 13.49, -0.93 -0.61" stroke="#000000" stroke-width="1" fill="none"></path></g><g stroke-linecap="round" transform="translate(112.56640625 277.41796875) rotate(0 299.822265625 21.291015625)"><path d="M0.29 -0.09 L600.49 1.49 L598.65 41.22 L-1.75 43.58" stroke="none" stroke-width="0" fill="#ced4da"></path><path d="M-0.4 -0.47 C142.43 -1.87, 284.71 -1.89, 600.38 -0.46 M-0.23 -0.2 C152.86 1.35, 305.05 1.59, 599.62 -0.27 M600.72 -1.51 C601.16 13.19, 600.4 25.81, 600.99 41.04 M600.31 -0.86 C598.94 11.54, 600.5 24.03, 598.81 43.47 M600.08 42.08 C401.19 43.51, 203.17 44.43, 0.65 42.92 M599.44 42.62 C374.78 42.45, 150.91 42.38, 0.28 42.79 M-0.94 41.27 C0.34 30.3, 0.86 17.41, 1.31 1.05 M0.49 43.42 C-0.92 29.96, 0.62 17.74, 0.4 -0.38" stroke="#000000" stroke-width="1" fill="none"></path></g><g stroke-linecap="round" transform="translate(110.697265625 375.931640625) rotate(0 299.822265625 21.291015625)"><path d="M0.44 0.38 L599.69 -0.02 L600.08 43.14 L0.69 44.41" stroke="none" stroke-width="0" fill="#ced4da"></path><path d="M0.33 -0.42 C161.62 -0.67, 322.43 -1.68, 599.93 -0.46 M-0.29 0.17 C142.08 -1.19, 283.71 -0.53, 599.71 -0.32 M598.96 -0.09 C600.76 14.41, 597.89 27.61, 599.18 41.57 M600.45 0.54 C599.82 12.58, 599.87 23.89, 600.11 41.71 M599.5 43.35 C424.59 40.01, 249.63 41.13, 0.38 42.56 M599.31 42.57 C431.28 44.06, 263 43.72, -0.09 42.86 M-1.38 43.88 C1.43 32.39, 1.04 25.29, 0.99 1.28 M-0.87 42.09 C0.88 30.99, 1.02 17.76, 0.15 0.68" stroke="#000000" stroke-width="1" fill="none"></path></g><g transform="translate(131.33203125 209.96875) rotate(0 19 10)"><text x="0" y="14" font-family="Virgil, Segoe UI Emoji" font-size="16px" fill="#000000" text-anchor="start" style="white-space: pre;" direction="ltr">Links</text></g><g transform="translate(482.9140625 209.07421875) rotate(0 56.5 10)"><text x="0" y="14" font-family="Virgil, Segoe UI Emoji" font-size="16px" fill="#000000" text-anchor="start" style="white-space: pre;" direction="ltr">Date Created</text></g><g transform="translate(644.40625 208.34375) rotate(0 25 10)"><text x="0" y="14" font-family="Virgil, Segoe UI Emoji" font-size="16px" fill="#000000" text-anchor="start" style="white-space: pre;" direction="ltr">delete</text></g><g stroke-linecap="round" transform="translate(593.1875 154.80859375) rotate(0 56.009765625 15.91015625)"><path d="M1.99 1.53 L113.68 1.22 L113.42 30.83 L-0.16 33.4" stroke="none" stroke-width="0" fill="#228be6"></path><path d="M1.68 -1.59 C39.13 -1.54, 74.67 1.34, 113.3 0.14 M-0.87 -0.51 C22.48 0.31, 46.87 0.01, 112.81 0.73 M113.76 -1.85 C113.35 9.69, 111.69 17.39, 112.35 31.39 M112.04 -0.1 C112.58 10.52, 112.74 19.57, 111.79 31.27 M110.05 31.32 C71.03 32.34, 30.94 29.78, 0.52 33.46 M111.46 32.36 C80.29 30.78, 48.08 30.39, -0.39 31.4 M0.07 31.32 C-0.54 23.57, 0.25 13.97, -1.62 0.96 M-0.36 32.82 C0.54 24.34, 0.33 17.23, 0.65 -0.17" stroke="#000000" stroke-width="1" fill="none"></path></g><g transform="translate(616.328125 161.16796875) rotate(0 33 10)"><text x="0" y="14" font-family="Virgil, Segoe UI Emoji" font-size="16px" fill="#000000" text-anchor="start" style="white-space: pre;" direction="ltr">Add Link</text></g><g stroke-linecap="round" transform="translate(10.5546875 46.5) rotate(0 413.541015625 25.001953125)"><path d="M-0.38 -0.15 L826.22 0.24 L825.13 51.55 L0.73 50.69" stroke="none" stroke-width="0" fill="#868e96"></path><path d="M-0.31 -0.16 C213.28 0.2, 426.92 0.73, 827.51 -0.6 M-0.32 0 C224.02 2.92, 448.48 3.25, 827.27 -0.11 M825.32 -0.68 C828.35 11.63, 828.46 25.16, 827.45 50.47 M826.09 0.56 C826.07 10.82, 827.03 21.66, 827.1 50 M827.31 49.37 C566.57 49.98, 305.21 49.46, 0.27 49.24 M826.92 49.87 C629.93 48.27, 432.73 48.46, 0.13 50.15 M-1.46 49.16 C-1.66 32.56, -0.16 13.69, 1.26 -0.78 M-0.14 50.26 C1 32.39, 0.99 12.77, 0.32 0.91" stroke="#000000" stroke-width="1" fill="none"></path></g><g stroke-linecap="round" transform="translate(1061.3781994578467 48.401494700203784) rotate(0 413.630859375 254.521484375)"><path d="M-0.04 -0.54 C299.14 0.59, 597.15 0.11, 827.55 0.57 M0.39 -0.29 C301.26 -2.63, 602.18 -2.79, 827.44 -0.22 M827.61 0.69 C825.13 113.41, 825.54 227.73, 827.23 508.93 M827.52 -0.31 C825.52 119.12, 826.12 238.15, 827.3 508.86 M827.45 509.63 C497.58 507.75, 168.87 507.76, 0.36 508.27 M827.53 508.74 C565.42 507.06, 302.92 506.93, 0.03 508.73 M-0.43 509.37 C0.69 383.7, 0.89 259.99, -0.37 -0.53 M-0.36 508.99 C1.92 386.72, 1.74 264.42, -0.1 0.39" stroke="#000000" stroke-width="1" fill="none"></path></g><g transform="translate(1067.0344494578467 11.174932200203784) rotate(0 45.5 12.5)"><text x="0" y="18" font-family="Virgil, Segoe UI Emoji" font-size="20px" fill="#000000" text-anchor="start" style="white-space: pre;" direction="ltr">Homepage</text></g><g stroke-linecap="round" transform="translate(1061.9328869578467 47.674932200203784) rotate(0 413.541015625 25.001953125)"><path d="M1.31 -0.19 L825.58 0.65 L825.1 48.62 L0.91 51.81" stroke="none" stroke-width="0" fill="#868e96"></path><path d="M-0.59 0.17 C269.55 -3.57, 539.14 -2.89, 826.65 -0.61 M0.34 -0.37 C190.87 -1.59, 382.2 -1.45, 827.02 -0.26 M825.51 -1.24 C827.19 13.1, 826.99 22.9, 826.14 51.97 M827.82 -0.19 C826.14 14.94, 826.15 28.65, 826.11 50.17 M826.48 50.48 C530.44 51.86, 233.82 52.28, -0.62 49.57 M827.25 50.28 C584.37 48.6, 342.47 48.04, -0.27 49.77 M-0.27 50.81 C0.15 39.21, 0.74 28.14, 1.96 0.86 M0.42 49.34 C0.46 30.28, -1.29 12.06, 0.22 1" stroke="#000000" stroke-width="1" fill="none"></path></g><g stroke-linecap="round" transform="translate(1063.1280104056991 97.77770807569601) rotate(0 413.66417112450335 229.20424057093996)"><path d="M1.4 -0.6 L828.57 -1.05 L828.9 457.33 L1.11 456.92" stroke="none" stroke-width="0" fill="#708c96"></path><path d="M0.1 -0.39 C188.26 -0.31, 376.66 -0.91, 826.88 0.05 M-0.25 -0.23 C287.66 0.34, 574.32 0.4, 826.98 0.33 M827.25 0.8 C829.27 112.03, 828.63 222.22, 827.36 457.62 M827.73 0.33 C826.36 133.22, 826.21 266.8, 827.56 458.58 M827.99 457.68 C564.48 456.09, 302.45 455.76, -0.04 459.2 M827 458.12 C546.1 458.27, 265.6 457.62, -0.01 458.26 M0.79 458.52 C1.06 307.45, 1.3 154.57, -0.1 -0.02 M-0.45 458.29 C-1.31 341.32, -0.92 223.33, 0.21 0.15" stroke="#000000" stroke-width="1" fill="none"></path></g><g stroke-linecap="round"><g transform="translate(710.0276770155594 168.14164906687733) rotate(0 293.9550207764637 27.78236059584293)"><path d="M1.12 0.92 C98.86 9.85, 487.85 45.2, 585.49 54.24 M0.25 0.36 C98.43 9.35, 489.97 45.87, 587.66 55.2" stroke="#000000" stroke-width="1" fill="none"></path></g><g transform="translate(710.0276770155594 168.14164906687733) rotate(0 293.9550207764637 27.78236059584293)"><path d="M560.17 61.04 C563.25 61.52, 571.22 59.14, 589.65 54.88 M557.93 62.78 C565.61 60.69, 574.45 58.13, 586.68 54.35" stroke="#000000" stroke-width="1" fill="none"></path></g><g transform="translate(710.0276770155594 168.14164906687733) rotate(0 293.9550207764637 27.78236059584293)"><path d="M562.09 40.61 C564.85 45.67, 572.4 47.84, 589.65 54.88 M559.86 42.35 C566.88 45.83, 575.19 48.85, 586.68 54.35" stroke="#000000" stroke-width="1" fill="none"></path></g></g><g stroke-linecap="round" transform="translate(1305.4069023070178 176.93655316667855) rotate(0 172.7977370550584 149.44745499779748)"><path d="M0.29 1.27 L347.2 0.66 L345.93 298.37 L0.28 297.09" stroke="none" stroke-width="0" fill="#ced4da"></path><path d="M-0.07 -1.12 C83.1 0.23, 164.6 1.62, 344.53 -0.72 M-0.17 0 C111.49 1.05, 222.32 1.97, 345.3 0.13 M346.34 1.4 C344.88 86.57, 345.01 169.31, 344.8 298.61 M345.89 -0.66 C344.25 68.42, 342.95 134.94, 346.3 299.09 M344.65 298.25 C271.94 300.4, 196.72 299.93, -0.82 298.83 M346.08 298.55 C244.96 297.89, 145.63 298.81, -0.06 298.74 M-1.09 299.79 C-1.51 237.64, -1.37 177.54, 0.62 -0.77 M-0.51 299.57 C-1 237.41, -0.88 177, 0.03 0.44" stroke="#000000" stroke-width="1" fill="none"></path></g><g transform="translate(1329.5175574971036 221.79258836753996) rotate(0 19 10)"><text x="0" y="14" font-family="Virgil, Segoe UI Emoji" font-size="16px" fill="#000000" text-anchor="start" style="white-space: pre;" direction="ltr">Links</text></g><g stroke-linecap="round" transform="translate(1328.0391849664088 252.6913748828452) rotate(0 147.535928731995 16.958910368031866)"><path d="M-1.33 0.89 L294.86 0.93 L294.03 33.32 L-0.81 34.52" stroke="none" stroke-width="0" fill="#ced4da"></path><path d="M1.22 -0.52 C115.09 -1.93, 229.36 -0.69, 295.97 1.33 M0.03 -0.68 C117.13 -1.3, 233.56 -1.92, 294.57 -0.34 M295.93 -1.8 C295.81 11.56, 294.46 23.44, 297.06 34.43 M295.33 0.08 C294.38 9.62, 295.35 18.62, 295.69 32.93 M294.26 33.4 C234.02 35.61, 171.66 35.87, 0.29 32.86 M295.62 34.28 C207.53 32.91, 120.29 32.04, 0.42 33.93 M0.18 32.69 C-1.94 23.54, 1.41 15.15, -0.19 1.72 M-0.72 33.25 C1.11 24.24, -0.23 15.5, -0.93 0.68" stroke="#000000" stroke-width="1" fill="none"></path></g><g stroke-linecap="round" transform="translate(1520.6231021496333 423.39632025034393) rotate(0 57.88723014296261 16.980097235509902)"><path d="M0.58 -1.1 L114.43 1.46 L115.57 32.37 L-0.73 33.1" stroke="none" stroke-width="0" fill="#228be6"></path><path d="M1.64 -0.17 C41.59 0.08, 84.37 1.53, 113.81 1.34 M-0.09 0.48 C29.4 -0.34, 59.71 -1.37, 115.01 -0.29 M115.24 1.95 C114.72 11.28, 116.29 24.04, 114.46 33.24 M116.36 0.17 C115.25 11.29, 116.46 21.47, 116.35 33.1 M116.18 35.07 C77.81 32.05, 41.38 31.41, -1.39 33.96 M115.46 34.05 C70.47 33.39, 23.66 33.21, -0.62 34.55 M-1.23 32.5 C-1.38 23.46, 0.13 16.74, -0.96 0.23 M-0.67 33.46 C-0.2 25, 1.02 16.46, -0.82 -0.82" stroke="#000000" stroke-width="1" fill="none"></path></g><g transform="translate(1544.568970592668 432.5030477264786) rotate(0 33 10)"><text x="0" y="14" font-family="Virgil, Segoe UI Emoji" font-size="16px" fill="#000000" text-anchor="start" style="white-space: pre;" direction="ltr">Add Link</text></g></svg>